<svg width="1em" height="1em" viewBox="0 0 256 256" xmlns="http://www.w3.org/2000/svg" class="larkui-icon larkui-icon-newdoc-default"><g fill="none" fill-rule="evenodd"><path d="M165.333 14.933c21.208 0 38.4 17.193 38.4 38.4l.001 85.679a59.321 59.321 0 0 0-12.8 0V53.333c0-14.138-11.462-25.6-25.6-25.6h-96c-14.14 0-25.6 11.462-25.6 25.6v128c0 14.139 11.46 25.6 25.6 25.6h70.114a58.24 58.24 0 0 0 3.647 12.802l-73.762-.002c-21.207 0-38.4-17.192-38.4-38.4v-128c0-21.207 17.193-38.4 38.4-38.4h96ZM128 157.333A5.333 5.333 0 0 1 128 168H74.667a5.333 5.333 0 0 1 0-10.667H128Zm32-32A5.333 5.333 0 0 1 160 136H74.667a5.333 5.333 0 0 1 0-10.667H160Zm-5.333-66.666c5.89 0 10.666 4.775 10.666 10.666v16c0 5.891-4.775 10.667-10.666 10.667H80c-5.891 0-10.667-4.776-10.667-10.667v-16c0-5.89 4.776-10.666 10.667-10.666h74.667Z" fill="#585A5A" fill-rule="nonzero"></path><path d="M197.333 150.4c25.92 0 46.934 21.013 46.934 46.933 0 25.92-21.013 46.934-46.934 46.934-25.92 0-46.933-21.013-46.933-46.934 0-25.92 21.013-46.933 46.933-46.933Zm.88 18.773a5.632 5.632 0 0 0-5.632 5.632V191.7l-16.896.001a5.632 5.632 0 1 0 0 11.264h16.895l.001 16.896a5.632 5.632 0 1 0 11.264 0v-16.896h16.896a5.632 5.632 0 1 0 0-11.264h-16.897l.001-16.896a5.632 5.632 0 0 0-5.632-5.632Z" fill="#1672F3"></path></g></svg>