<svg width="1em" height="1em" viewBox="0 0 256 256" xmlns="http://www.w3.org/2000/svg" class="larkui-icon larkui-icon-newbook-default"><g fill="none" fill-rule="evenodd"><path d="M135.095 36.265a58.24 58.24 0 0 0-3.647 12.801H86.952v144.537h95.981v-76.615a59.321 59.321 0 0 0 12.801 0v79.006c0 .407-.02.812-.06 1.214l-.037.327.033.2c.031.221.051.447.06.676l.003.23v14.692c0 15.317-12.416 27.734-27.733 27.734H58.013c-13.483 0-24.413-10.93-24.413-24.414 0-.184.002-.369.006-.553l.008-.222-.01-.194-.004-.231V64c0-15.317 12.417-27.733 27.733-27.733l73.762-.002Zm47.838 167.41-124.92.002A12.976 12.976 0 0 0 46.4 210.86v3.8l.01.075c.03.29.04.588.03.892l-.032.626-.008.4c0 6.414 5.2 11.614 11.614 11.614H168c8.247 0 14.933-6.686 14.933-14.934v-9.657ZM76.878 49.066l-15.545.002C53.086 49.067 46.4 55.753 46.4 64v132.739a22.944 22.944 0 0 1 11.614-3.136h18.865V49.066Z" fill="#585A5A" fill-rule="nonzero"></path><path d="M189.333 11.733c25.92 0 46.934 21.013 46.934 46.934 0 25.92-21.013 46.933-46.934 46.933-25.92 0-46.933-21.013-46.933-46.933 0-25.92 21.013-46.934 46.933-46.934Zm.88 18.774a5.632 5.632 0 0 0-5.632 5.632v16.895h-16.896a5.632 5.632 0 0 0 0 11.265h16.895l.001 16.896a5.632 5.632 0 0 0 11.264 0V64.299h16.896a5.632 5.632 0 1 0 0-11.264l-16.897-.001.001-16.895a5.632 5.632 0 0 0-5.632-5.632Z" fill="#00B96B"></path></g></svg>