<svg width="1em" height="1em" viewBox="0 0 20 20" xmlns="http://www.w3.org/2000/svg" class="larkui-icon larkui-icon-book-type-sheet icon-svg index-module_size_wVASz" data-name="BookTypeSheet" style="width: 24px; min-width: 24px; height: 24px;"><g fill="none" fill-rule="evenodd"><g fill="#BBEBC4" stroke="#388D68" stroke-linecap="round" stroke-linejoin="round" stroke-width="0.976"><path d="M2.4 10h1.5a1 1 0 0 1 1 1v7h0-3.5v-7a1 1 0 0 1 1-1ZM9.1 12.254h1.5a1 1 0 0 1 1 1V18h0-3.5v-4.746a1 1 0 0 1 1-1ZM15.8 6h1.5a1 1 0 0 1 1 1v11h0-3.5V7a1 1 0 0 1 1-1Z"></path></g><path d="m14.35.1 2.16.004c.305 0 .557.222.605.514l.009.099.003 2.11a.614.614 0 0 1-1.22.102l-.009-.1-.003-1.498-1.548-.002a.615.615 0 0 1-.605-.516l-.008-.1c0-.305.224-.558.516-.605l.1-.008Z" fill="#388D68" fill-rule="nonzero"></path><path d="M15.4.998a.5.5 0 0 1 .778.621l-.056.07-5.073 5.305a2.527 2.527 0 0 1-2.789.59l-.177-.08-3.096-1.565a1.527 1.527 0 0 0-1.627.159l-.112.096-1.994 1.89a.5.5 0 0 1-.748-.657l.06-.068L2.56 5.47a2.527 2.527 0 0 1 2.708-.5l.17.078L8.534 6.61c.554.28 1.216.195 1.68-.202l.112-.106L15.399.998Z" fill="#388D68" fill-rule="nonzero"></path></g></svg>