<svg width="1em" height="1em" viewBox="0 0 20 20" xmlns="http://www.w3.org/2000/svg" class="larkui-icon larkui-icon-group-type-default icon-svg index-module_size_wVASz" data-name="GroupTypeDefault" style="width: 24px; min-width: 24px; height: 24px;"><g stroke="#397ABD" fill="none" fill-rule="evenodd"><g fill="#679FF4"><path d="M11.895 11.476h4.737A2.368 2.368 0 0 1 19 13.845v3.24a.79.79 0 0 1-.79.79h-7.894a.79.79 0 0 1-.79-.79v-3.24a2.368 2.368 0 0 1 2.369-2.369ZM14.618 4.324a2.36 2.36 0 0 0-2.368 2.352 2.36 2.36 0 0 0 2.368 2.353 2.36 2.36 0 0 0 2.369-2.353 2.36 2.36 0 0 0-2.369-2.352Z"></path></g><g fill="#C4DCFF"><path d="M4.079 9.469h6.158c1.7 0 3.079 1.378 3.079 3.079v4.301c0 .567-.46 1.026-1.027 1.026H2.026C1.46 17.875 1 17.415 1 16.85v-4.301c0-1.7 1.378-3.08 3.079-3.08ZM6.684 1.8a2.833 2.833 0 0 0-2.842 2.824 2.833 2.833 0 0 0 2.842 2.823 2.833 2.833 0 0 0 2.842-2.823A2.833 2.833 0 0 0 6.684 1.8Z"></path></g></g></svg>