<svg width="1em" height="1em" viewBox="0 0 20 20" xmlns="http://www.w3.org/2000/svg" class="larkui-icon larkui-icon-group-type-department icon-svg index-module_size_wVASz" data-name="GroupTypeDepartment" style="width: 24px; min-width: 24px; height: 24px;"><g fill="none" fill-rule="evenodd" stroke="#397ABD"><path d="M3.7 1h12.55a1.5 1.5 0 0 1 1.5 1.5v2.955a1.5 1.5 0 0 1-1.5 1.5l-3.89-.001-1.9 1.903a.7.7 0 0 1-.98.01L7.5 6.953H3.7a1.5 1.5 0 0 1-1.5-1.499V2.5A1.5 1.5 0 0 1 3.7 1Z" fill="#679FF4" stroke-linejoin="round"></path><g fill="#C4DCFF"><g transform="translate(9.7 9.5)"><path d="m1.32 5.776 2.087-.753a3.429 3.429 0 0 1 2.33 0l2.085.753a2 2 0 0 1 1.32 1.882V9.5a.5.5 0 0 1-.5.5H0V7.658a2 2 0 0 1 1.32-1.882Z"></path><rect x="2.857" width="3.429" height="4.681" rx="1.714"></rect></g><g transform="translate(1.2 9.5)"><path d="m1.32 5.776 2.087-.753a3.429 3.429 0 0 1 2.33 0l2.085.753a2 2 0 0 1 1.32 1.882V10H.5a.5.5 0 0 1-.5-.5V7.658a2 2 0 0 1 1.32-1.882Z"></path><rect x="2.857" width="3.429" height="4.681" rx="1.714"></rect></g></g></g></svg>