<svg width="1em" height="1em" viewBox="0 0 20 20" xmlns="http://www.w3.org/2000/svg" class="larkui-icon larkui-icon-book-type-import icon-svg index-module_size_wVASz" data-name="BookTypeImport" style="width: 24px; min-width: 24px; height: 24px;"><g fill="none" fill-rule="evenodd"><path d="M2.53 2.5h15a1.5 1.5 0 0 1 1.5 1.5v12a1.5 1.5 0 0 1-1.5 1.5h-15a1.5 1.5 0 0 1-1.5-1.5V4a1.5 1.5 0 0 1 1.5-1.5Z" stroke="#5B6461" stroke-width="0.941" fill="#BBC7ED" stroke-linecap="round" stroke-linejoin="round"></path><path d="M3.03 2.5h14a2 2 0 0 1 2 2v2.667h-18V4.5a2 2 0 0 1 2-2Z" fill="#91A1DF"></path><path d="M2.53 2.5h15a1.5 1.5 0 0 1 1.5 1.5v12a1.5 1.5 0 0 1-1.5 1.5h-15a1.5 1.5 0 0 1-1.5-1.5V4a1.5 1.5 0 0 1 1.5-1.5Z" stroke="#55629D" stroke-linecap="round" stroke-linejoin="round"></path><path fill="#55629D" fill-rule="nonzero" d="M19.03 6.438v1H.983v-1zM11.185 9.534a.5.5 0 0 1 .31.56l-.024.086-1.805 4.667a.5.5 0 0 1-.957-.274l.025-.086 1.804-4.667a.5.5 0 0 1 .647-.286Zm-4.56 1.38a.5.5 0 0 1-.136.626l-.076.049-1.679.876 1.68.878a.5.5 0 0 1 .246.59l-.035.084a.5.5 0 0 1-.591.247l-.083-.035-1.73-.903a.97.97 0 0 1-.1-1.66l.1-.06 1.73-.903a.5.5 0 0 1 .674.211Zm6.732 0a.5.5 0 0 1 .675-.211l1.729.902.101.062a.97.97 0 0 1-.101 1.66l-1.73.902-.083.035a.5.5 0 0 1-.591-.247l-.035-.083a.5.5 0 0 1 .247-.591l1.679-.878-1.68-.876-.075-.049a.5.5 0 0 1-.136-.626Z"></path></g></svg>