<svg width="1em" height="1em" viewBox="0 0 20 20" xmlns="http://www.w3.org/2000/svg" class="larkui-icon larkui-icon-book-type-notes icon-svg index-module_size_wVASz" data-name="BookTypeNotes" style="width: 24px; min-width: 24px; height: 24px;"><g stroke="#388D68" stroke-width="0.976" fill="none" fill-rule="evenodd" stroke-linejoin="round"><path d="M2.031 2.4H8a2 2 0 0 1 2 2v13.504H8.358a.2.2 0 0 1-.125-.044l-1.147-.913a.2.2 0 0 0-.125-.043h-4.93a1.5 1.5 0 0 1-1.5-1.5V3.9a1.5 1.5 0 0 1 1.5-1.5Z" fill="#75CA97"></path><path d="M17.969 2.4H12a2 2 0 0 0-2 2v13.504h1.642a.2.2 0 0 0 .125-.044l1.147-.913a.2.2 0 0 1 .125-.043h4.93a1.5 1.5 0 0 0 1.5-1.5V3.9a1.5 1.5 0 0 0-1.5-1.5Z" fill="#BBEBC4" stroke-linecap="round"></path></g></svg>