<svg width="1em" height="1em" viewBox="0 0 20 20" xmlns="http://www.w3.org/2000/svg" class="larkui-icon larkui-icon-book-type-blog icon-svg index-module_size_wVASz" data-name="BookTypeBlog" style="width: 24px; min-width: 24px; height: 24px;"><g fill="none" fill-rule="evenodd" stroke="#397ABD"><path d="M7.5 6h9A1.5 1.5 0 0 1 18 7.5v9.268a1.5 1.5 0 0 1-1.5 1.5h-9a1.5 1.5 0 0 1-1.5-1.5V7.5A1.5 1.5 0 0 1 7.5 6Z" fill="#679FF4"></path><path d="M3.5 2h9A1.5 1.5 0 0 1 14 3.5v13.268a1.5 1.5 0 0 1-1.5 1.5h-9a1.5 1.5 0 0 1-1.5-1.5V3.5A1.5 1.5 0 0 1 3.5 2Z" fill="#C4DCFF"></path><path stroke-linecap="round" d="M5.5 7.5h5M5.5 12.6h5"></path></g></svg>