<svg width="1em" height="1em" viewBox="0 0 20 20" xmlns="http://www.w3.org/2000/svg" class="larkui-icon larkui-icon-group-type-project icon-svg index-module_size_wVASz" data-name="GroupTypeProject" style="width: 24px; min-width: 24px; height: 24px;"><g fill="none" fill-rule="evenodd"><path d="M9.5 2.517a8 8 0 1 1 0 16 8 8 0 0 1 0-16Z" stroke="#9D553E" fill="#F6D4C6" stroke-linejoin="round"></path><path d="M7.73 6.123a.5.5 0 0 1 .43.903c-1.381.657-2.247 2.066-2.17 3.592.107 2.073 1.904 3.665 4.018 3.552a3.844 3.844 0 0 0 3.433-2.552.5.5 0 1 1 .944.33 4.844 4.844 0 0 1-4.324 3.22c-2.663.143-4.934-1.87-5.069-4.498-.1-1.936.997-3.718 2.738-4.547Z" fill="#DFA087" fill-rule="nonzero"></path><path d="M9.858 9.12 13.58.972a.556.556 0 0 1 1.056.153l.518 3.66c.031.217.187.396.397.456l3.552 1.023a.556.556 0 0 1 .005 1.068l-8.587 2.552a.556.556 0 0 1-.664-.764Z" stroke="#9D553E" fill="#DE815A" stroke-linejoin="round"></path></g></svg>