<svg width="1em" height="1em" viewBox="0 0 20 20" xmlns="http://www.w3.org/2000/svg" class="larkui-icon larkui-icon-book-type-thread icon-svg index-module_size_wVASz" data-name="BookTypeThread" style="width: 24px; min-width: 24px; height: 24px;"><g stroke="#388D68" fill="none" fill-rule="evenodd"><path d="M2 1.4h11.124a1.5 1.5 0 0 1 1.5 1.5v7.046a1.5 1.5 0 0 1-1.5 1.5H3.942a2 2 0 0 0-1.24.431l-1.392 1.1a.5.5 0 0 1-.81-.392V2.9A1.5 1.5 0 0 1 2 1.4Z" stroke-width="0.976" fill="#75CA97"></path><path d="M17.624 6.446H7.371a1.5 1.5 0 0 0-1.5 1.5v8.1a1.5 1.5 0 0 0 1.5 1.5h8.403a2 2 0 0 1 1.106.334l1.468.974a.5.5 0 0 0 .776-.416V7.946a1.5 1.5 0 0 0-1.5-1.5Z" stroke-width="0.976" fill="#BBEBC4" stroke-linecap="round" stroke-linejoin="round"></path><g stroke-linecap="round" stroke-linejoin="round"><path d="M10.5 10.75h4M10.5 13.75h4"></path></g></g></svg>