<svg width="1em" height="1em" viewBox="0 0 20 20" xmlns="http://www.w3.org/2000/svg" class="larkui-icon larkui-icon-group-type-interest icon-svg index-module_size_wVASz" data-name="GroupTypeInterest" style="width: 24px; min-width: 24px; height: 24px;"><g fill="none" fill-rule="evenodd" stroke="#55629D"><g stroke-linejoin="round"><path d="M2.77 6.624 10 7.948V19.3l-7.77-1.422A1.5 1.5 0 0 1 1 16.402V8.1a1.5 1.5 0 0 1 1.77-1.476Z" fill="#BBC7ED"></path><path d="M17.23 6.624 10 7.948V19.3l7.77-1.422A1.5 1.5 0 0 0 19 16.402V8.1a1.5 1.5 0 0 0-1.77-1.476Z" fill="#91A1DF"></path></g><path d="M9.992.7A2.833 2.833 0 0 0 7.15 3.524a2.833 2.833 0 0 0 2.842 2.823 2.833 2.833 0 0 0 2.842-2.823A2.833 2.833 0 0 0 9.992.7Z" fill="#91A1DF"></path></g></svg>