<svg width="1em" height="1em" viewBox="0 0 20 20" xmlns="http://www.w3.org/2000/svg" class="larkui-icon larkui-icon-book-type-travel icon-svg index-module_size_wVASz" data-name="BookTypeTravel" style="width: 24px; min-width: 24px; height: 24px;"><g fill="none" fill-rule="evenodd"><ellipse fill="#EFF0F0" cx="10" cy="7.188" rx="3.048" ry="3.04"></ellipse><path d="M15.55 13.51c2.453.52 3.95 1.343 3.95 2.485 0 .933-1.1 1.697-2.877 2.22l-.44.121c-.074.02-.15.039-.228.057l-.476.107-.5.097c-.084.016-.17.03-.257.045l-.53.082-.55.072-.283.032-.577.056c-.098.009-.196.017-.295.024l-.602.04-.615.029-.63.017L10 19l-.64-.006-.63-.017-.615-.029-.602-.04a28.905 28.905 0 0 1-.295-.024l-.577-.056c-.095-.01-.189-.02-.282-.032l-.55-.072-.531-.082c-.087-.014-.173-.03-.258-.045l-.499-.097-.476-.107a14.776 14.776 0 0 1-.229-.057l-.44-.12C1.6 17.691.5 16.927.5 15.994c0-1.05 1.262-1.827 3.368-2.35l.521-.121a.5.5 0 0 1 .21.977c-1.958.423-3.099 1.056-3.099 1.494 0 .5 1.091 1.037 2.817 1.43l.445.094c.152.03.309.06.469.088l.493.081.514.074.534.064.553.055c.094.009.188.017.283.024l.578.04c.097.007.196.012.294.017l.6.024.61.012L10 18l.31-.002.61-.012.6-.024.585-.035a28.7 28.7 0 0 0 .57-.046l.553-.055.534-.064.514-.074.493-.08c.16-.029.317-.058.47-.089l.444-.095c1.726-.392 2.817-.93 2.817-1.43 0-.443-1.165-1.083-3.158-1.505a.5.5 0 0 1 .118-.989l.09.01Z" fill="#9D553E" fill-rule="nonzero"></path><path d="M10 1c3.314 0 6 2.63 6 5.874 0 1.82-1.368 5.22-4.105 8.202l-.27.29a2.028 2.028 0 0 1-2.78.154l-.114-.104C5.578 12.276 4 8.762 4 6.874 4 3.63 6.686 1 10 1Z" stroke="#9D553E" fill="#DE815A" stroke-linejoin="round"></path><circle stroke="#9D553E" fill="#F1CFC2" stroke-linejoin="round" cx="10" cy="7" r="2.5"></circle></g></svg>