<svg width="1em" height="1em" viewBox="0 0 20 20" xmlns="http://www.w3.org/2000/svg" class="larkui-icon larkui-icon-book-type-resource icon-svg index-module_size_wVASz" data-name="BookTypeResource" style="width: 24px; min-width: 24px; height: 24px;"><g stroke="#8F6333" fill="none" fill-rule="evenodd"><path d="M4.952 3.152h10.714a1.5 1.5 0 0 1 1.5 1.5v2.435H5.75" fill="#E39631"></path><path d="M3.2 2.009h2.729a1.5 1.5 0 0 1 1.323.794l1.34 2.512a1.5 1.5 0 0 0 1.324.794h6.834a1.5 1.5 0 0 1 1.5 1.5v8.826a1.5 1.5 0 0 1-1.5 1.5H3.2a1.5 1.5 0 0 1-1.5-1.5V3.51a1.5 1.5 0 0 1 1.5-1.5Z" fill="#F5DD9C" stroke-linecap="round" stroke-linejoin="round"></path></g></svg>