<svg width="1em" height="1em" viewBox="0 0 20 20" xmlns="http://www.w3.org/2000/svg" class="larkui-icon larkui-icon-book-icon-yuque icon-svg index-module_size_wVASz" data-name="BookIconYuque" style="width: 24px; min-width: 24px; height: 24px;"><g fill="none" fill-rule="evenodd"><path d="M3.9 1.267h12.132a1.5 1.5 0 0 1 1.5 1.5v14.5a1.5 1.5 0 0 1-1.5 1.5H3.9a1.5 1.5 0 0 1-1.5-1.5v-14.5a1.5 1.5 0 0 1 1.5-1.5Z" stroke="#388D68" stroke-width="0.976" fill="#75CA97" stroke-linejoin="round"></path><g fill-rule="nonzero"><path d="M10.88 5.014 10.769 5h-.111c-.511.034-.915.52-.837 1.08l.038.226c.088.44.246.824.473 1.136l.036.043-.013.02c-.414.586-1.087 1.399-1.897 2.232-.917.942-2.332 2.056-4.239 3.328-.658.439-.51 1.484.241 1.706 1.161.344 2.398.299 3.692-.122.538-.175.709-.182 1.006-.06l.136.06c.54.246.917.337 1.524.28 1.78-.166 3.206-.801 4.022-2.112l.133-.23c.62-1.165.63-2.6.172-3.894l-.07-.188.045-.257c.016-.104.03-.21.04-.322l.43-.536c.472-.591.105-1.493-.63-1.548l-.359-.024-.22-.008-.062-.065c-.416-.381-1.001-.552-1.71-.574l-.24-.002a7.453 7.453 0 0 1-1.487-.155Z" fill="#BBEBC4"></path><path d="m10.768 5 .113.014c.566.11 1.063.16 1.487.155l.24.002c.709.022 1.294.193 1.71.574l.062.065.22.008.358.024c.736.055 1.103.957.63 1.548l-.429.536c-.01.112-.024.218-.04.322l-.046.257.071.188c.457 1.293.447 2.73-.172 3.894l-.133.23c-.816 1.31-2.241 1.946-4.022 2.112-.607.057-.984-.034-1.524-.28l-.136-.06c-.297-.122-.468-.115-1.006.06-1.294.42-2.53.466-3.692.122-.752-.222-.899-1.267-.24-1.706 1.906-1.272 3.321-2.386 4.238-3.328.81-.833 1.483-1.646 1.897-2.232l.013-.02-.036-.043a2.853 2.853 0 0 1-.473-1.136L9.82 6.08c-.078-.561.326-1.047.837-1.08l.11-.001Zm-.052.944c.097.687.38 1.13.848 1.33a2.02 2.02 0 0 1-.04.083l-.115.204-.16.254-.204.298-.25.34-.297.38c-.107.132-.221.27-.343.413l-.39.445c-.207.23-.43.47-.673.72-.969.996-2.43 2.146-4.386 3.45.657.195 1.881.113 3.673-.245l-.27.053a5.67 5.67 0 0 0 .432-.108c.621-.185.932-.452 1.594-1.127.706-.72 1.402-.311.735.47-.374.438-.697.734-1.032.958.228.093.493.163.899.125 1.25-.116 2.625-.531 3.343-1.685.718-1.155.533-2.647.042-3.706.086-.32.138-.668.158-1.043l.613-.768c-.35-.026-.671-.041-.965-.045-.231-.476-.817-.636-1.548-.626l-.3-.003a8.976 8.976 0 0 1-1.364-.167Z" fill="#408366"></path></g></g></svg>