<svg width="1em" height="1em" viewBox="0 0 20 20" xmlns="http://www.w3.org/2000/svg" class="larkui-icon larkui-icon-book-icon-topic icon-svg index-module_size_wVASz" data-name="BookIconTopic" style="width: 24px; min-width: 24px; height: 24px;"><g stroke="#55629D" fill="none" fill-rule="evenodd"><path d="M9.04 1.8c4.441 0 8.04 3.657 8.04 8.168 0 4.511-3.599 8.168-8.04 8.168a8.05 8.05 0 0 1-.357-.008h-6.48a.5.5 0 0 1-.401-.8l1.344-1.804A8.21 8.21 0 0 1 1 9.968C1 5.457 4.6 1.8 9.04 1.8Z" fill="#91A1DF"></path><path d="M18.863 18.98a.3.3 0 0 0 .217-.507l-1.179-1.237A5.127 5.127 0 0 0 19.034 14c0-2.761-2.134-5-4.767-5C11.634 9 9.5 11.239 9.5 14s2.134 5 4.767 5c.142 0 .283-.007.422-.02h4.174Z" fill="#BBC7ED" stroke-linejoin="round"></path></g></svg>