<svg width="1em" height="1em" viewBox="0 0 20 20" xmlns="http://www.w3.org/2000/svg" xmlns:xlink="http://www.w3.org/1999/xlink" class="larkui-icon larkui-icon-book-type-design icon-svg index-module_size_wVASz" data-name="BookTypeDesign" style="width: 24px; min-width: 24px; height: 24px;"><defs><rect id="3491673958a" x="0" y="0" width="16" height="13" rx="1.5"></rect></defs><g fill="none" fill-rule="evenodd"><path d="m1.53 4.847 12.446-3.808a1.5 1.5 0 0 1 1.879 1.013l2.765 9.45a1.5 1.5 0 0 1-1.03 1.865L5.671 16.754l-2.398.69L.515 6.653a1.5 1.5 0 0 1 1.014-1.806Z" stroke="#9D553E" fill="#DE815A" stroke-linejoin="round"></path><g transform="translate(3.302 5.888)"><mask id="3491673958b" fill="#fff"><use xlink:href="#3491673958a"></use></mask><use stroke="#9D553E" fill="#F6D4C6" stroke-linejoin="round" xlink:href="#3491673958a"></use><path d="m1.91 9.724 2.7-3.926a.8.8 0 0 1 1.243-.093l1.783 1.908a1.4 1.4 0 0 0 1.878.153l1.282-.989a.8.8 0 0 1 1.143.173l1.949 2.767a.8.8 0 0 1-.654 1.26H2.569a.8.8 0 0 1-.66-1.253Z" fill="#DFA087" mask="url(#3491673958b)" transform="matrix(-1 0 0 1 15.824 0)"></path><ellipse fill="#DFA087" mask="url(#3491673958b)" cx="7.047" cy="3.728" rx="1.092" ry="1.116"></ellipse></g></g></svg>